<svg xmlns="http://www.w3.org/2000/svg" viewBox="0 0 1530.509 932.951"><defs><linearGradient id="a" x2="1530.509" y1="466.476" y2="466.476" gradientUnits="userSpaceOnUse"><stop offset="0" stop-color="#ff8a00"/><stop offset=".999" stop-color="#fff400"/></linearGradient><pattern id="b" width="28.8" height="28.801" patternTransform="translate(14.13 160.126)" patternUnits="userSpaceOnUse" viewBox="0 0 28.8 28.801"><rect width="28.8" height="28.801" fill="none"/><path fill="#0043b0" d="M28.80024 30.9609a2.16016 2.16016 0 10-2.1601-2.16016A2.1601 2.1601 0 0028.80024 30.9609zM14.39994 30.9609a2.16016 2.16016 0 10-2.1602-2.16016A2.16036 2.16036 0 0014.39994 30.9609zM28.80024 16.5605a2.16015 2.16015 0 10-2.1601-2.1601A2.16009 2.16009 0 0028.80024 16.5605zM14.39994 16.5605a2.16015 2.16015 0 10-2.1602-2.1601A2.16034 2.16034 0 0014.39994 16.5605zM7.1997 23.75973a2.15917 2.15917 0 10-2.16015-2.16016A2.16036 2.16036 0 007.1997 23.75973zM21.60014 23.75973a2.15917 2.15917 0 10-2.1602-2.16016A2.16093 2.16093 0 0021.60014 23.75973zM7.1997 9.3593A2.15915 2.15915 0 105.03955 7.2011 2.15995 2.15995 0 007.1997 9.3593zM21.60014 9.3593a2.15915 2.15915 0 10-2.1602-2.1582A2.16052 2.16052 0 0021.60014 9.3593zM0 30.9609a2.16015 2.16015 0 002.15918-2.16016A2.16014 2.16014 0 000 26.64059a2.15972 2.15972 0 00-2.16016 2.16015A2.15973 2.15973 0 000 30.9609zM0 16.5605a2.16013 2.16013 0 002.15918-2.1601A2.16016 2.16016 0 000 12.2402a2.15974 2.15974 0 00-2.16016 2.1602A2.15972 2.15972 0 000 16.5605zM28.80024 2.1611A2.16094 2.16094 0 0030.95944 0a2.15968 2.15968 0 00-2.1592-2.1582A2.1593 2.1593 0 0026.64014 0 2.16056 2.16056 0 0028.80024 2.1611zM14.39994 2.1611A2.1612 2.1612 0 0016.56 0a2.15994 2.15994 0 00-2.1601-2.1582A2.15932 2.15932 0 0012.23974 0 2.16058 2.16058 0 0014.39994 2.1611zM0 2.1611A2.161 2.161 0 002.15918 0 2.15973 2.15973 0 000-2.1582 2.15931 2.15931 0 00-2.16016 0 2.16057 2.16057 0 000 2.1611z"/></pattern></defs><rect width="1530.509" height="932.951" fill="url(#a)"/><g opacity=".46"><path fill="#fff" d="M542.88513 402.63129L618.099 382.95013c48.63574-12.72656 69.11328 3.17823 64.49317 38.14112-4.25684 32.21-24.49024 57.17285-50.15235 70.79785L655.87145 563.1l-60.8623 15.92578-19.25781-60.07715-9.833 2.57324-19.0127 70.0918L486.84118 607.3305zm50.93457 72.78515c16.21191-4.24219 26.72656-13.90332 28.94531-30.69629 1.63769-12.38867-4.73926-16.56738-19.09082-12.8125l-14.085 3.686L577.34216 479.728zM693.308 470.11468l31.90039-115.19189 60.06445-15.71729-32.1543 117.11914c-7.40722 26.92188-2.73828 38.19141 17.99219 32.76709 20.19727-5.28515 27.64551-18.92822 34.459-43.30273l33.124-120.562 60.59473-15.85547-34.5752 125.7251c-15.51562 57.21631-47.45605 89.229-101.14258 103.27685C704.5697 553.81293 676.11169 532.28851 693.308 470.11468zM932.5111 300.67816l67.77149-17.73389 23.93945 92.60694 29.21484-106.51612 53.419-13.978-56.04395 204.69922L993.139 474.84711 963.08141 370.28754l-32.92968 121.042L876.4652 505.37738z"/></g><path fill="#fff" d="M760.33186,308.025V286.48465l-9.60068,3.98736a7.556,7.556,0,0,1-9.97354-4.25891,77.78832,77.78832,0,0,1-.69919-53.09951q20.75535-5.702,41.51083-11.40407l7.2986,68.52516Z"/><circle cx="743.857" cy="344.66" r="17.79" fill="#f9b082"/><circle cx="689.704" cy="396.112" r="11.727" fill="#fff"/><polygon fill="#fff" points="686.363 384.87 730.906 331.094 751.289 360.823 694.967 406.59 686.363 384.87"/><path fill="#fff" d="M689.70353,384.38433,651.523,331.00738a5.96843,5.96843,0,0,1-.65053-5.77845l1.56225-3.72923a12.46356,12.46356,0,0,0,.24489-8.99911l-1.61754-4.53956a2.93292,2.93292,0,0,0-4.73313-1.188h0a2.93292,2.93292,0,0,0-.8333,3.03359l1.36253,4.43618a1.4928,1.4928,0,0,1-.7594,1.77349h0a1.49278,1.49278,0,0,1-1.88932-.47739l-3.82916-5.45365a3.57371,3.57371,0,0,0-5.87148.03161l-6.30451,9.18794a7.93629,7.93629,0,0,0,2.02038,11.01115l9.47791,6.57475L680.21586,402.985"/><path fill="#df63ac" d="M956.83166,334.75867a63.06445,63.06445,0,0,1-16.75-6.5c-.3031-.17084-.59546-.34522-.89111-.51844-6.207-9.27911-17.40076-14.77844-32.17652-21.72894-41.51074-19.52667-56.56421-24.44373-73.89844-41.144-7.05529-6.79737-13.21264-13.56592-18.83032-19.84973a78.96858,78.96858,0,0,0,15.79639,1.23413,62.8272,62.8272,0,0,1-27.40381-14.07141c-2.07153-2.20026-4.09424-4.25525-6.09216-6.13953l-.01331-.01526v.0025c-7.32349-6.90417-14.32019-11.47162-22.20752-12.07318-4.3894-.33478-15.209-.52759-23.58667,4.3335a21.60135,21.60135,0,0,0-7.4126,6.61438,20.90443,20.90443,0,0,0-3.30712,8.21094c4.93115-.55292,11.86425-.51691,18.4746,2.96508,13.90064,7.32209,17.5896,25.255,18.93067,30.791,10.09668,41.67822,63.45093,112.33435,114.95312,114.95306,4.45533.22656,30.86426,3.36206,44.35962-13.50061a36.586,36.586,0,0,0,5.90259-33.47528c-.12915-.38135-.28711-.736-.42822-1.1062A78.84309,78.84309,0,0,0,956.83166,334.75867Z"/><path fill="#cb549d" d="M956.83166,334.75867a63.06445,63.06445,0,0,1-16.75-6.5c-.3031-.17084-.59546-.34522-.89111-.51844-6.207-9.27911-17.40076-14.77844-32.17652-21.72894-41.51074-19.52667-56.56421-24.44373-73.89844-41.144-7.05529-6.79737-13.21264-13.56592-18.83032-19.84973a78.96858,78.96858,0,0,0,15.79639,1.23413,62.8272,62.8272,0,0,1-27.40381-14.07141c-2.07153-2.20026-4.09424-4.25525-6.09216-6.13953l-.01331-.01526v.0025c-7.32349-6.90417-14.32019-11.47162-22.20752-12.07318-3.64868-.27826-11.73816-.44794-19.17724,2.29132,4.59887,2.09394,9.03088,5.48444,13.58935,9.78186v-.0025l.01318.01526a160.63271,160.63271,0,0,0,36.53,38.82654c23.00574,17.29034,36.30152,17.01785,73.89844,41.144,22.94629,14.72479,32.186,23.93363,34.661,36.51127.54163,2.75253,2.948,14.98192-4.89856,25.79952-8.08423,11.14514-21.08691,12.56833-23.2876,12.77332a61.66382,61.66382,0,0,0,6.72339.72729c4.45533.22656,30.86426,3.36206,44.35962-13.50061a36.586,36.586,0,0,0,5.90259-33.47528c-.12915-.38135-.28711-.736-.42822-1.1062A78.84309,78.84309,0,0,0,956.83166,334.75867Z"/><path fill="#e4ecfb" d="M727.03731,349.738q-4.10577,18.73239-8.21167,37.46478l32.46289-26.37991-13.87585-36.16658q-2.44116,6.41815-5.20606,13.09533Q729.64663,343.92109,727.03731,349.738Z"/><path fill="#fff" d="M852.14679,464.57975a39.326,39.326,0,0,1-29.44066,38.32682l-87.66547,23.06362,25.84626,104.00515L740.81575,642.1366,688.5851,529.32754a24.04782,24.04782,0,0,1,8.35682-30.01554l77.42-52.331-3.485-15.64641-.666-3.01066a47.924,47.924,0,0,0-18.02756-27.94455l-3.48515-2.60924a54.57144,54.57144,0,0,1-11.95145-12.35287c-.69337-.98533-1.4597-2.15313-2.26255-3.50336-.32842-.56563-.67511-1.16774-1.01267-1.79725a.00894.00894,0,0,0-.00913-.00913c-.18242-.35582-.37408-.71164-.56564-1.08567s-.38321-.75725-.57477-1.14954c-.17328-.365-.34668-.739-.52008-1.113-.17329-.38322-.34658-.77551-.52-1.16781-.53824-1.24075-1.03093-2.50889-1.4597-3.79525-.146-.44708-.30114-.90325-.447-1.35941-.292-.9214-.56575-1.87939-.82112-2.86466l-.05468-.219q-.20547-.80745-.38333-1.61484c-.11849-.54742-.22808-1.08567-.32831-1.63309-.10045-.54738-.20068-1.09475-.28287-1.63305v-.00913c-.07306-.4835-.1459-.95793-.20982-1.44143-.07306-.62951-.146-1.259-.20069-1.87939-.04566-.42883-.08219-.84852-.10045-1.27728-.01826-.20074-.02728-.40143-.04555-.60217-.0274-.49263-.04555-.98527-.06381-1.478-.01827-.55651-.0274-1.12214-.0274-1.67865a55.33106,55.33106,0,0,1,.42877-6.8151c.05479-.47437.1186-.93967.19155-1.405l1.35936-8.93165a16.49783,16.49783,0,0,1,4.48868-9.04118,17.2078,17.2078,0,0,1,2.13481-1.84286l1.94337-1.41415h.009v-.00913l25.11636-18.21,11.40407-8.2748,4.71677-3.42122c16.61342-12.061,39.56745,1.72431,36.73938,22.06l-2.582,18.52021v.00913l-.53824,3.85-2.05273,14.77056q-.2601,1.86112-.438,3.72225a91.09833,91.09833,0,0,0-.42877,11.02091v.14595l.0274,1.06746c.01826.593.03653,1.186.07306,1.779a3.97519,3.97519,0,0,0,.02739.46524c.02729.63864.07284,1.28641.12763,1.925,0,.13681.01827.27368.0274.4105.06392.80285.14589,1.6057.22808,2.39942a93.90716,93.90716,0,0,0,29.5958,58.89068A38.86569,38.86569,0,0,1,852.14679,464.57975Z"/><polygon fill="#e4ecfb" points="813.213 332.413 791.122 325.328 814.87 320.524 813.213 332.413"/><path fill="#fff" d="M884.95544,320.53808a11.71656,11.71656,0,0,0-10.40528-17.12316l-74.43542-12.50245-.00281.01081a17.77712,17.77712,0,1,0-8.98657,34.39093l-.00366.01349.06054.0011a17.48467,17.48467,0,0,0,7.56141.13977l58.7788,1.08618-31.23327,45.27069a3.20338,3.20338,0,0,1-3.34839,1.3042l-6.96277-1.58649a6.27791,6.27791,0,0,0-5.29211,1.19952l-17.05786,13.50885a3.79436,3.79436,0,0,0,4.21313,6.28315l3.12988-1.75714a5.73776,5.73776,0,0,1,5.8274.12353l6.71484,4.15344a7.06609,7.06609,0,0,0,9.09289-1.42334L881.554,324.53235a11.76113,11.76113,0,0,0,3.39368-3.97809l.01342-.01575Z"/><path fill="#e4ecfb" d="M886.27746,315.14221a11.72729,11.72729,0,0,0-11.7273-11.72729l-74.43542-12.50245-.00281.01081a17.6551,17.6551,0,0,0-16.94617,4.07556c.28943-.014.57459-.04382.86731-.04382a17.76513,17.76513,0,0,1,4.85791.68859l.00269-.0108a45.46306,45.46306,0,0,0,8.40259,6.22308c8.99219,5.16348,17.78406,6.01293,45,6.25,6.011.05237,13.08557.07629,21.033.02936,4.45813.13949,8.45178,2.08419,10.217,5.22064a14.37623,14.37623,0,0,1,1.51025,6.50666,12.841,12.841,0,0,1-.18506,2.07315,11.71408,11.71408,0,0,1-1.137,3.32272l.00562.00043-.01343.01575a11.76,11.76,0,0,1-3.3938,3.97808,142.00236,142.00236,0,0,0-10.78662,9.85321c-10.78174,10.91681-15.8208,19.57512-23,29.5a236.0037,236.0037,0,0,1-22.56909,26.70722,7.15444,7.15444,0,0,0,4.59484.66768,7.03981,7.03981,0,0,0,4.03418-2.34963L881.554,324.53235a11.76113,11.76113,0,0,0,3.39368-3.97809l.01342-.01575-.00561-.00043A11.66566,11.66566,0,0,0,886.27746,315.14221Z"/><path fill="#f8b07e" d="M815.06823,376.54578l3.10608-4.5022-2.19629-.50043a6.27791,6.27791,0,0,0-5.29211,1.19952l-4.7771,3.78327,5.811,1.324A3.20337,3.20337,0,0,0,815.06823,376.54578Z"/><path fill="#6e4fff" d="M978.02624,679.24591l-104.48-59.57a77.05151,77.05151,0,0,1-31.75-34.56l-27.81006-60.09-8.17993-17.67,33.6499-71.58s18.42017,16.78,23.55,38.96a50.42917,50.42917,0,0,1,1.13013,6.99c2.2799,25.54,24.17993,93.51,24.17993,93.51l87.27,72.99Z"/><path fill="#f9b082" d="M812.81644,335.33969a2.25318,2.25318,0,0,1,.24634.88493Z"/><polygon fill="#fff" points="975.591 648.222 992.773 662.363 987.755 686.73 978.023 679.241 975.591 648.222"/><path fill="#6d7fff" d="M809.77832,357.67341a91.09833,91.09833,0,0,0-.42877,11.02091v.14595l.0274,1.06746c.01826.593.03653,1.186.07306,1.779a3.97077,3.97077,0,0,0,.02434.43852,10.73184,10.73184,0,0,1,.1333,1.86638,3.80643,3.80643,0,0,0,.02478.49589c.06392.80285.13676,1.6057.22808,2.39942-11.01184,2.39942-23.21865,4.53429-36.50217,6.07612-13.15566,1.5327-25.42651,2.25342-36.61164,2.45416-.69337-.98533-1.4597-2.15313-2.26255-3.50336-.32842-.56563-.67511-1.16774-1.01267-1.79725a.00894.00894,0,0,0-.00913-.00913c-.18242-.35582-.37408-.71164-.56564-1.08567s-.38321-.75725-.57477-1.14954c-.17328-.365-.34668-.739-.52008-1.113-.17329-.38322-.34658-.77551-.52-1.16781-.51085-1.19514-.99441-2.45416-1.4597-3.79525-.146-.44708-.30114-.90325-.447-1.35941-.292-.9214-.56575-1.87939-.82112-2.86466l-.05468-.219q-.20547-.80745-.38333-1.61484c-.11849-.54742-.22808-1.08567-.32831-1.63309-.10045-.54738-.20068-1.09475-.28287-1.63305v-.00913c-.07306-.4835-.1459-.95793-.20982-1.44143-.07306-.62951-.146-1.259-.20069-1.87939-.04566-.42883-.08219-.84852-.10045-1.27728-.01826-.20074-.02728-.40143-.04555-.60217-.0274-.49263-.04555-.98527-.06381-1.478-.01827-.55651-.0274-1.12214-.0274-1.67865a55.33106,55.33106,0,0,1,.42877-6.8151c1.97967-7.96459,5.37361-17.71736,6.03959-19.3778a17.2078,17.2078,0,0,1,2.13481-1.84286l1.94337-1.41415h.009a.24493.24493,0,0,1-.02728.073c-3.15673,9.89871-6.44108,20.25364-3.25707,23.10923,2.0436,1.83378,6.88811.71158,10.19061-1.44149,7.7639-5.0634,6.0671-15.19933,13.0737-30.718.52235-1.15313,1.096-2.38589,1.788-3.71153a24.0629,24.0629,0,0,1,7.20448-8.32828l7.548-5.47686s-16.54047,17.51667-9.85305,35.00594c5.61747,14.69108,23.52881,19.45993,35.74487,15.23585a27.19206,27.19206,0,0,0,12.44413-9.2236l-2.05273,14.77056Q809.95623,355.81229,809.77832,357.67341Z"/><path fill="url(#b)" d="M809.77832,357.67341a91.09833,91.09833,0,0,0-.42877,11.02091v.14595l.0274,1.06746c.01826.593.03653,1.186.07306,1.779a3.97077,3.97077,0,0,0,.02434.43852,10.73184,10.73184,0,0,1,.1333,1.86638,3.80643,3.80643,0,0,0,.02478.49589c.06392.80285.13676,1.6057.22808,2.39942-11.01184,2.39942-23.21865,4.53429-36.50217,6.07612-13.15566,1.5327-25.42651,2.25342-36.61164,2.45416-.69337-.98533-1.4597-2.15313-2.26255-3.50336-.32842-.56563-.67511-1.16774-1.01267-1.79725a.00894.00894,0,0,0-.00913-.00913c-.18242-.35582-.37408-.71164-.56564-1.08567s-.38321-.75725-.57477-1.14954c-.17328-.365-.34668-.739-.52008-1.113-.17329-.38322-.34658-.77551-.52-1.16781-.51085-1.19514-.99441-2.45416-1.4597-3.79525-.146-.44708-.30114-.90325-.447-1.35941-.292-.9214-.56575-1.87939-.82112-2.86466l-.05468-.219q-.20547-.80745-.38333-1.61484c-.11849-.54742-.22808-1.08567-.32831-1.63309-.10045-.54738-.20068-1.09475-.28287-1.63305v-.00913c-.07306-.4835-.1459-.95793-.20982-1.44143-.07306-.62951-.146-1.259-.20069-1.87939-.04566-.42883-.08219-.84852-.10045-1.27728-.01826-.20074-.02728-.40143-.04555-.60217-.0274-.49263-.04555-.98527-.06381-1.478-.01827-.55651-.0274-1.12214-.0274-1.67865a55.33106,55.33106,0,0,1,.42877-6.8151c1.97967-7.96459,5.37361-17.71736,6.03959-19.3778a17.2078,17.2078,0,0,1,2.13481-1.84286l1.94337-1.41415h.009a.24493.24493,0,0,1-.02728.073c-3.15673,9.89871-6.44108,20.25364-3.25707,23.10923,2.0436,1.83378,6.88811.71158,10.19061-1.44149,7.7639-5.0634,6.0671-15.19933,13.0737-30.718.52235-1.15313,1.096-2.38589,1.788-3.71153a24.0629,24.0629,0,0,1,7.20448-8.32828l7.548-5.47686s-16.54047,17.51667-9.85305,35.00594c5.61747,14.69108,23.52881,19.45993,35.74487,15.23585a27.19206,27.19206,0,0,0,12.44413-9.2236l-2.05273,14.77056Q809.95623,355.81229,809.77832,357.67341Z"/><path fill="#673eff" d="M863.00622,474.7359a61.05645,61.05645,0,0,1-49.02,50.29q-4.09-8.835-8.17993-17.67l33.6499-71.58S857.87634,452.55591,863.00622,474.7359Z"/><path fill="#4a6cff" d="M809.86051,376.887c-11.01184,2.39942-23.21865,4.53429-36.50217,6.07612-13.15566,1.5327-25.42651,2.25342-36.61164,2.45416a54.31436,54.31436,0,0,1-4.42476-7.54495c8.27486-.16421,24.64193-.72985,40.12408-2.664,11.55909-1.44149,25.91909-4.1602,36.90353-6.41368Q809.418,372.85912,809.86051,376.887Z"/><path fill="#7e6afb" d="M852.14679,464.57975a39.326,39.326,0,0,1-29.44066,38.32682l-87.66547,23.06362,25.84626,104.00515L740.81575,642.1366,688.5851,529.32754a24.04782,24.04782,0,0,1,8.35682-30.01554l77.42-52.331-3.485-15.64641,46.79323-25.78228a93.5171,93.5171,0,0,0,21.78624,30.22536A38.86569,38.86569,0,0,1,852.14679,464.57975Z"/><path fill="#6e4fff" d="M844.18823,440.98505a39.17644,39.17644,0,0,1-29.0896,33.0924L759.047,488.82389a33.1399,33.1399,0,0,0-23.72993,40.04177l17.96235,72.28058h0a31.38715,31.38715,0,0,0-14.08329,34.85248l1.61969,6.13787,20.071-12.16126L735.04064,525.97015l87.66553-23.0636a39.32612,39.32612,0,0,0,29.44067-38.32684A38.71814,38.71814,0,0,0,844.18823,440.98505Z"/><polyline fill="#fff" points="740.816 642.137 747.585 660.766 769.255 651.451 760.887 629.975"/><path fill="#ed69ac" d="M740.81575,653.01157a45.28769,45.28769,0,0,0,22.88-15.41913,3.62754,3.62754,0,0,1,5.36813-.39205q7.62118,7.33538,15.24237,14.67077l-56.108,61.12583a38.935,38.935,0,0,1-.68424-10.94791c.99373-12.27486,7.51355-17.58505,11.176-30.10675A57.05065,57.05065,0,0,0,740.81575,653.01157Z"/><path fill="#d451a9" d="M784.30625,651.87116l2.68983,3.07409a3.46279,3.46279,0,0,1-.1192,4.69l-52.57866,54.26117a3.46278,3.46278,0,0,1-4.68813.26333l-1.41188-1.16272Z"/><path fill="#edc8f0" d="M752.91382,663.76161c2.36232,1.91038,7.16806,4.42437,9.41924,1.00519a25.42327,25.42327,0,0,0,2.23108-5.77171,77.88179,77.88179,0,0,0,2.09439-7.68355c.69579-3.13514-4.12343-4.47414-4.8214-1.3292-.468,2.10867-1.00082,4.19642-1.63971,6.2605-.4511,1.45735-1.046,4.80532-2.18695,5.86091l1.76776-.73223a4.53648,4.53648,0,0,1-3.32888-1.14545c-2.48009-2.00562-6.03912,1.51091-3.53553,3.53554Z"/><path fill="#ed69ac" d="M983.18851,690.18335a45.28765,45.28765,0,0,0,5.27563-27.08157,3.62756,3.62756,0,0,1,3.51862-4.07307q10.57589-.20208,21.15179-.40418l3.54811,82.89687a38.935,38.935,0,0,1-8.22517-7.25751c-7.977-9.38231-7.12163-17.74738-13.38607-29.19131A57.05077,57.05077,0,0,0,983.18851,690.18335Z"/><path fill="#d451a9" d="M1013.13455,658.62453l4.0757.27172a3.4628,3.4628,0,0,1,3.232,3.40059L1021.632,737.844a3.46279,3.46279,0,0,1-3.12881,3.50121l-1.82052.17618Z"/><path fill="#edc8f0" d="M999.34456,689.23015c3.01533-.35121,8.22966-1.93767,7.36325-5.98-.92046-4.29454-4.14636-8.9257-6.46369-12.56958-1.72191-2.70762-6.05089-.2023-4.31735,2.5236,1.15868,1.822,2.26044,3.67566,3.26888,5.58549.723,1.3692,2.643,4.056,2.5805,5.66438l.73224-1.76777a4.67764,4.67764,0,0,1-3.16383,1.54392c-3.15827.36787-3.19545,5.3722,0,5Z"/><polygon fill="#e4ecfb" points="760.332 286.485 773.082 280.377 760.332 298.162 760.332 286.485"/><line x1="1016.683" x2="1247.545" y1="523.844" y2="466.186" fill="none" stroke="#ffd61e" stroke-linecap="round" stroke-linejoin="round"/><line x1="1016.683" x2="1109.171" y1="560.682" y2="537.583" fill="none" stroke="#ffd61e" stroke-linecap="round" stroke-linejoin="round"/><line x1="338.555" x2="569.418" y1="377.788" y2="320.13" fill="none" stroke="#ffd61e" stroke-linecap="round" stroke-linejoin="round"/><line x1="501.223" x2="593.711" y1="374" y2="350.901" fill="none" stroke="#ffd61e" stroke-linecap="round" stroke-linejoin="round"/></svg>