<?xml version="1.0" encoding="UTF-8"?>
<!DOCTYPE svg PUBLIC "-//W3C//DTD SVG 1.1//EN" "http://www.w3.org/Graphics/SVG/1.1/DTD/svg11.dtd">
<!-- Creator: CorelDRAW 2018 (64-Bit) -->
<svg xmlns="http://www.w3.org/2000/svg" xml:space="preserve" width="2.18017E+06px" height="2.82222E+06px" version="1.1" style="shape-rendering:geometricPrecision; text-rendering:geometricPrecision; image-rendering:optimizeQuality; fill-rule:evenodd; clip-rule:evenodd"
viewBox="0 0 2180166.66 2821392.15"
 xmlns:xlink="http://www.w3.org/1999/xlink">
 <defs>
  <style type="text/css">
   <![CDATA[
    .fil0 {fill:#7C3AED}
   ]]>
  </style>
 </defs>
 <g id="Layer_x0020_1">
  <metadata id="CorelCorpID_0Corel-Layer"/>
  <g id="_2381808362832">
   <path class="fil0" d="M1031477.34 1018941.64c-2575,2752.72 3003.16,-3212.19 0,0zm47441.6 32074.4c-11940.93,-19561.92 2216.52,-31069.65 8138.01,-48860.38 9059.96,-27213.2 52139.2,-78059.86 75057.71,-96937.13 5112.64,-4211.89 21760.27,-7185.77 29564.03,-3143.52 16452.74,8521.73 -4985.4,39101.63 -10512.06,46777.14 -20849.42,28955.12 -8836.79,8367.24 -26324.57,42318.87 -11403.72,22140.96 -48605.91,61619.24 -75923.12,59845.02zm-345863.9 -2786.05c-3890.78,-12307.49 659.4,-17918.97 4104.85,-28723.87 2001.43,-6277.96 1364.25,-9405.32 4167.46,-14237.23 6558.68,-11306.77 7120.13,-9165.99 19019.66,-31761.36 7078.72,-13442.51 36131.79,-47386.06 46483.29,-56573.26 5703.37,-5061.13 13177.94,-10525.18 19958.78,-14378.6 6499.09,-3693.86 13035.56,-5975.01 20651.5,-3980.64 20556.57,5384.27 989.6,34829.14 -7303.92,51533.32 -7456.39,15020.83 -16510.29,29644.81 -25969.12,42940.9 -10490.86,14746.17 -20118.33,25191.58 -32130.95,36742.73 -13356.68,12844.7 -27960.46,26572.99 -48981.55,18438.01zm1051418.95 -88385.11c2123.61,-16619.35 20067.83,-33352.81 29021.76,-42190.62 3872.6,-3822.11 37034.56,-27154.63 42698.55,-21533.06 11905.59,11819.76 -19845.68,37528.36 -24396.86,41517.08 -10052.6,8810.54 -27933.2,21550.23 -47323.45,22206.6zm-154032.46 107.04c2127.65,-16120.51 56119.85,-75353.59 71883.9,-60216.63 8916.57,8562.13 -21436.12,37275.9 -25163.31,40521.41 -9796.1,8531.84 -28750.12,20473.78 -46720.59,19695.22zm269556.04 88889c-5130.81,-7645.23 -7805.78,-18258.27 -1038.07,-27651.46 5804.35,-8055.21 2962.76,-2682.04 5648.84,-12964.87 1824.71,-6990.88 1893.38,-3714.06 7103.97,-8632.82 5588.25,-5275.21 19375.11,-40962.69 59753.13,-81243.77 17068.71,-17027.32 24917.92,-27566.64 45221.04,-25285.49 20743.39,2329.62 -3456.56,40342.67 -6984.82,47161.88 -8487.4,16400.23 -16852.62,31039.35 -25721.72,44720.18 -10790.77,16643.58 -50325.6,64132.64 -75447.5,64196.26l-8534.87 -299.91zm-687755.23 -147428.34c-10280.81,-4229.06 -11892.46,-14714.87 -26089.29,-15233.91 -34030.4,-1243.06 -62507.88,16834.45 -88956.66,34527.22 -16990.96,11366.35 -27107.18,25730.81 -40041.76,41707.93 -9876.89,12201.46 -18129,25496.54 -20871.63,41092.96 -1950.94,11096.74 -159.55,6285.02 -5232.81,13964.58 -12982.04,19647.76 -38951.16,35834.91 -47464.82,24126.24 -17751.34,-24411 50841.61,-111597.47 68361.71,-131875.35 5748.81,-6655.61 17594.82,-12742.71 14996.59,-22260.11 -7147.39,-3120.3 -16125.55,5002.56 -39850.9,5356 -37758.59,561.45 -27583.8,-33016.55 -54503.15,8047.12 -26568.96,40529.49 -52069.53,84036.89 -86186.77,118612.58 -4554.21,4615.81 -44206.19,45694.64 -47441.6,28968.25 -754.32,-3900.88 -154.5,1619.72 -315.06,-2915.31 -568.52,-16025.59 8872.14,-26565.92 17142.44,-38592.68 16627.43,-24182.79 31761.36,-51544.44 48183.8,-76432.06 5025.79,-7616.95 24686.68,-30311.29 26130.7,-35682.43 -10956.38,-6653.6 -17111.13,-4511.81 -32484.39,-4699.63 -20838.31,-253.46 -12385.24,4400.72 -24509.96,11614.76 -15145.04,-4250.26 -20007.24,-29912.41 -78331.5,-3438.38 -27882.7,12655.87 -40228.57,21554.27 -61429.4,41814.97 -12841.68,12272.15 -26483.12,27747.39 -33128.64,45458.34 -2389.19,6365.81 -3201.07,15503.52 -4960.15,19692.19 -1637.91,3897.84 -2851.69,2972.86 -4939.96,8017.84 -6010.36,14528.05 -5199.48,11514.8 -17840.21,21668.38 -8869.11,7123.15 -16772.84,18536.97 -33166,16465.86 -6977.74,-11261.33 -1850.97,-11820.77 1830.77,-23160.86 3536.34,-10887.71 4507.77,-12582.16 9795.1,-21231.13 7975.43,-13050.71 17221.2,-25198.65 25644.98,-38329.13 12663.95,-19740.66 23794.01,-42082.57 35466.34,-61257.73 3978.62,-6534.44 9655.74,-11553.17 7751.25,-21843.07l-47565.8 80.78c-25153.21,42130.03 -23500.16,55122.17 -58253.57,102264.86 -17667.53,23966.69 -36506.43,44276.88 -60188.35,60890.17 -11072.5,7767.41 -13876.73,5191.4 -23594.07,-1676.27 -654.36,-12374.14 -1314.77,-17687.73 4057.39,-25982.26 21060.47,-32507.61 80861.06,-100778.43 79790.67,-135023.91l-40753.67 2183.2c-7911.81,10632.22 -13961.55,18332.99 -21274.55,31252.42 -17654.4,31185.77 -48410,56827.72 -59140.18,93262.46 -3184.92,10813.99 -5834.64,34414.12 -829.04,44980.7 5070.22,10703.93 24272.65,14019.11 39492.42,10021.3 12490.26,-3281.86 24279.72,-10687.77 33779.96,-17202.01 5244.92,-3596.92 9518.41,-6676.83 15634.79,-10575.68 21971.32,-14008 15507.56,-2251.86 16757.7,20699.97 6782.85,5485.26 9294.23,10469.65 21437.12,9988.98 27291.98,-1079.48 45916.8,-25999.42 63910.49,-30298.15 14341.24,11151.26 11296.68,42424.89 54840.44,30247.66 29570.08,-8268.27 43099.44,-32754 56899.42,-33992.02 1258.21,18875.26 -470.57,27454.55 12979.01,34664.55 11742,6296.13 26956.71,3029.41 36374.14,-2568.94 56318.79,-33486.11 89389.87,-89865.48 123978.68,-142652.98 153.49,-233.26 2382.13,-3343.46 2796.15,-3823.12 5379.22,-6207.26 36394.34,-4162.41 45270.52,1890.36 -1265.29,9028.65 -15395.47,18397.61 -21841.05,24597.81 -21192.76,20387.94 -49667.21,45020.09 -59538.04,74650.76 -11758.16,35294.67 7171.63,54523.36 35978.3,44302.12 29432.76,-10444.4 45741.09,-31830.03 56291.52,-31886.58 2900.16,5793.25 1989.32,11207.82 5702.37,16977.84 12889.13,20025.42 23463.8,21068.55 47053.83,14151.39 27467.67,-8055.21 48511.99,-31628.07 56288.49,-32267.28 1975.17,11743.01 -2348.81,21138.23 4804.65,27979.65 15457.06,14781.51 28850.09,7749.24 46748.87,789.67 16859.68,-6556.66 10471.66,-192.87 21693.62,3142.51 4756.17,1412.71 26055.97,716.96 32441.97,540.24 11169.44,-307.99 16950.56,-2809.27 20877.69,-10618.09 10018.27,-19918.38 11345.15,-20167.8 24153.5,-37919.14 17636.23,-24441.3 32404.61,-50773.95 52600.69,-73692.46 62903.71,-71385.06 108817.48,-64844.56 38744.16,15839.78 -13615.19,15677.21 -30415.3,34193.98 -39991.27,56588.4 -11635.97,27210.18 -11949.01,59526.93 29449.92,53873.04 11050.29,-1509.65 27135.45,-8176.38 35888.43,-13082.01 8385.41,-4698.61 20078.94,-17567.56 29583.22,-17134.35 6486.98,9938.49 7864.35,31697.74 35853.09,23500.16 7547.27,-2210.46 9823.37,-1700.51 18366.31,-2764.85 17082.85,-2127.65 38477.57,-26111.51 54196.18,-30436.5 5178.27,6761.65 3370.72,13923.18 9461.86,21163.47 3379.81,4019.02 10282.83,11024.03 15749.91,13394.04 11875.3,5146.97 39691.35,4491.61 53386.32,352.42 34234.37,-10350.49 67653.83,-42959.07 73766.17,-44685.84 10961.42,18173.44 3182.9,27574.72 21920.82,39736.8 27675.7,17965.42 70239.95,1206.71 95546.64,-14526.03 6995.92,-4348.22 32445,-24386.77 36258.02,-25406.67 6639.46,15969.04 -1807.55,23562.76 13052.73,39208.67 7966.34,8387.43 29013.68,9684.02 43814.38,5379.22 19730.56,-5739.72 31809.83,-18740.95 47025.56,-29896.25 6778.81,-4969.25 5841.71,-8697.44 15921.58,-8357.14 1047.16,11887.41 -5195.44,47488.05 32087.53,36583.18 43160.02,-12625.58 70670.11,-50490.2 95158.87,-84951.78 4708.71,-6625.32 12950.73,-13649.52 11951.03,-23936.39 -8499.52,1243.07 -9002.4,5220.69 -13051.72,11336.06 -9520.43,14374.56 -20799.94,27469.69 -32273.33,39864.03 -6490.01,7009.05 -44037.55,48023.24 -53504.46,36478.15 -5165.15,-6299.15 277.69,-17372.66 3301.05,-24291.84 19620.49,-44908 50240.77,-87077.41 77662,-127351.42 17719.03,-26025.68 70579.23,-104829.76 83041.22,-136393.21 661.42,-1677.28 1310.73,-3787.77 1360.21,-4910.67 284.76,-6522.33 343.33,-2120.59 -1215.81,-4256.33 -7430.13,-4816.76 -42952.01,-1604.57 -50101.42,1690.42 -2429.59,5745.78 -4681.45,15941.77 -7200.91,22395.43 -7781.55,19931.51 -18737.92,36849.76 -30917.17,54210.31 -8111.75,11561.25 -15847.86,21912.75 -23743.52,33545.69 -6874.74,10130.35 -14806.75,29661.98 -23682.93,33243.75 -9600.2,84.83 -18388.53,-22410.58 -56382.4,-7068.62 -98456.89,39756.99 -118376.28,115095.43 -127268.62,122088.32 -17088.91,13438.47 -72712.95,54774.79 -95040.72,44713.11 -8885.27,-4004.89 -16130.61,-9667.87 -12638.71,-22499.45l21840.04 -48921.97c33348.78,-5636.72 79002.01,-25622.76 98757.82,-42307.75 11498.63,-9711.28 26397.28,-23020.5 23578.92,-47267.91 -606.9,-5212.61 -6894.94,-23460.78 -8827.71,-25856.03 -4921.78,-6095.18 -19443.77,-5581.19 -29177.27,-4986.41 197.92,11271.43 5757.9,14503.81 5850.8,23653.64 -69617.9,11137.13 -117529.06,55443.29 -150873.79,111261.21 -7599.79,12721.51 -4389.62,11121.98 -16435.57,19771.96 -15285.4,10975.56 -26742.64,20936.26 -44024.42,31192.84 -14200.88,8427.83 -11548.12,5531.71 -28050.34,9438.64 -12738.67,3015.28 -16053.86,639.21 -23795.02,-6931.29 -8809.53,-8615.65 -4551.18,-14537.14 -461.48,-25393.54 19075.2,-50627.53 8420.76,-38162.51 56789.36,-52417.91 17898.77,-5274.21 38196.84,-13330.43 52449.21,-23287.09 12740.7,-8901.42 30824.27,-24136.34 33747.65,-40598.16 8975.14,-50527.56 -87058.23,-5538.77 -99910,1986.29 -37882.79,22180.34 -69317.99,57797.13 -88708.25,98290.27 -6723.27,14039.3 -6016.41,10425.22 -16373.97,19641.7 -10914.97,9714.31 -24087.86,27702.96 -48541.27,24655.37 -6207.27,-12228.73 34.33,-17288.86 4466.36,-27943.3 18017.93,-43306.45 48887.64,-79087.84 75543.43,-116073.93 4474.44,-6208.27 10391.9,-18018.94 18386.51,-19011.58 4810.71,-597.8 19590.2,4999.54 23090.18,-3346.49 4277.53,-10203.05 -12450.88,-6745.49 -19298.36,-8046.11 -245.39,-6592 6477.89,-15915.52 10418.14,-18429.93 5341.87,7605.84 9624.44,17799.81 15190.48,25614.68l19100.45 101.99c-400.9,-5429.71 -12796.24,-29571.1 -17629.16,-34331.31 -3257.63,-3209.16 -8733.8,-2248.84 -8947.87,-2835.53 -134.31,-369.59 -699.8,-103 -996.68,-279.72 3657.51,-9979.89 12880.05,-21126.1 17403.97,-32180.43 1306.69,-3188.96 2871.88,-7580.6 1510.67,-11378.47 -10980.61,-4803.64 -33914.27,763.41 -47818.26,1689.4 -4493.63,6263.82 -8410.66,19095.4 -12001.52,27350.54 -5127.78,11793.5 -9433.59,13189.05 -15055.16,22628.7 -4736.99,7954.22 -8773.18,19413.48 -15214.72,23832.38 -7698.75,5281.27 -25069.39,96.94 -33726.44,3787.77 -332.23,14494.73 8630.79,5208.57 19559.9,10368.67 2524.51,6373.88 -940.13,8483.36 -4625.91,12983.05 -22627.69,27625.21 -41696.82,57606.28 -60149.98,89261.62 -10240.42,17565.54 -21758.25,35355.25 -36611.45,48388.79 -17785.68,15609.55 -51959.46,24164.61 -34814,-12370.1 4861.19,-10357.55 75757.51,-90085.61 75557.57,-115193.38 -7.07,-928.01 -1524.81,-17856.36 -2082.22,-19321.59 -3290.95,-8653.01 -20344.52,-11103.8 -32162.25,-10709.98 -28075.58,937.1 -50302.38,20622.22 -61894.93,21163.47 -2465.94,-6527.37 3187.96,-17570.58 -2420.5,-18966.13l-4436.06 -955.28c-1184.5,-118.14 -3606.01,-35.34 -4876.35,-3.03 -44552.55,1134.01 -28244.21,-2561.87 -36070.19,17050.54 -3377.8,8466.2 -16291.17,24008.09 -21395.73,32613.64 -4150.29,6995.92 -8296.55,15242.99 -13321.33,22896.29 -4412.85,6721.26 -9590.11,10450.46 -15208.66,19097.41 -10673.63,16422.45 -17056.6,28274.51 -28505.75,41982.6 -27994.8,33516.4 -61167.87,46311.63 -54956.56,22035.94 6487.99,-25359.2 62004.99,-109913.11 80599.52,-132430.73 4520.89,-5474.15 20880.72,-24048.48 3196.03,-21401.79 -9146.81,1369.3 -15420.72,5126.78 -25657.1,3632.27 -17567.56,-2563.89 -11739.98,3549.46 -24730.1,10006.15z"/>
   <path class="fil0" d="M703496.06 1120056.33c4735.98,-2275.09 8550.01,-1719.7 13947.41,-1669.21l381755.36 60.59c17332.28,0 43669.98,5068.21 43539.72,-10192.96l-440382.56 -231.24 -314.05 -14398.8c-3968.53,-1996.38 -16069.01,-9308.37 -18060.34,-9522.45 -6413.27,73526.86 15122.82,164510.19 39134.95,219711.12 25586.41,58817.04 61608.13,110857.28 103807.84,155049.33 137449.46,143938.46 374590.8,197546.93 575267.12,99556.57 62454.35,-30497.09 107628.94,-66685.43 148660.3,-110228.18 35128.05,-37277.92 80002.73,-100925.86 99845.37,-158972.42 10851.36,-31742.17 25241.06,-66723.8 28009.94,-101071.27 4170.49,-51745.38 8013.81,-68668.69 3790.81,-123035.52 -6772.76,1275.38 -11857.12,6340.56 -16854.64,9413.39l336.27 33707.26 -451971.07 44.43c-221.15,11933.86 8117.81,9572.94 19517.49,9472.97 9825.39,-86.84 19677.04,-20.2 29505.46,-20.2 59351.22,0 397329.57,-2597.21 401433.41,1493.5 6295.12,6273.91 -3243.49,42530.92 -3836.25,53442.87l-376298.38 42.41c-24346.37,0 -41367.62,-4777.39 -30709.14,10200.03l405842.21 268.6c375.65,9930.42 -8251.11,48381.73 -11966.18,55409.96l-279930.77 163.59c-500.86,14747.18 11340.1,9787.02 26530.58,9780.96 12014.65,-5.05 24029.29,-1.01 36043.94,0l213336.22 1525.82c2002.45,6880.8 -5936.63,21009.98 -8982.2,29447.9 -2234.7,6198.18 -3780.71,10255.57 -5826.57,15350.03 -2679.01,6671.77 -2696.18,8481.34 -11758.16,8477.3l-229365.85 -4.04c-5906.34,0 -12230.74,-1531.87 -11350.2,5833.64 689.7,5763.96 5137.89,4596.63 11196.71,4539.07 10980.61,-104.01 21934.96,-120.17 32919.61,-120.17l197526.73 49.48c-920.94,11870.25 -20868.6,44039.57 -27942.28,53966.95l-222629.45 291.84c-2095.34,2934.49 -4672.36,6078.01 -4522.91,10946.27l217600.62 80.79c-2372.03,10246.48 -10343.42,17892.71 -16846.56,26158.97 -15378.3,19550.81 -18860.1,27985.7 -33319.49,28090.72l-178677.73 -114.11c-13106.25,-20.19 -26281.16,-2227.62 -27510.09,10303.03l204188.41 614.97c-3188.96,6801.03 -34935.17,34645.37 -43636.65,40871.82 -9211.44,6592 -12552.88,14181.68 -28083.66,14138.26l-170489.24 -76.74c-14854.21,-2.02 -29419.62,-3743.35 -32775.2,8946.86l196262.46 256.49c-4341.15,12962.85 -86223.12,46941.75 -96212.1,50767.89 -26946.62,10319.19 -92026.46,90.88 -126332.53,3227.34 -6187.07,566.5 -11346.15,7286.74 -4278.54,9019.56l84410.52 790.68c-5540.79,6355.71 -45144.29,12172.18 -55481.65,13065.85 -46300.52,3999.84 -85595.02,6190.1 -132323.7,679.6 -5687.22,-671.52 -51140.51,-6295.12 -55161.55,-13133.51l93243.28 -201.96c724.02,-7445.28 -60.59,-4678.42 -3163.72,-9942.53l-122127.71 -151.47c-17187.87,0 -48739.19,-15087.48 -63279.36,-22563.06 -9010.48,-4631.97 -48338.3,-24424.12 -50926.43,-31773.48l140964.59 -16.15c-2983.97,-12843.7 -16387.1,-8975.14 -31674.52,-8972.11l-117959.24 0c-13237.52,-44.43 -27766.57,-15492.41 -37636.4,-23958.61 -8093.58,-6941.39 -27825.15,-20913.04 -30378.94,-31566.47l159387.45 -150.46c-194.89,-12987.09 -12511.47,-9473.98 -25838.86,-9452.78l-104854 1.01c-37288.02,4.04 -35136.13,7025.21 -54735.41,-15525.73 -6556.66,-7545.26 -27029.42,-30118.41 -28626.93,-39932.7l181675.84 -313.04c166.62,-14510.88 -12343.84,-9584.05 -26225.62,-9577.99l-142536.85 2.02c-17969.46,44.43 -19463.97,3216.23 -26903.2,-9170.03 -5114.65,-8514.66 -23255.78,-37216.32 -23394.13,-46156.11 33502.27,-1910.55 71958.63,-243.37 106002.15,-244.38 18020.96,0 36042.93,0 54064.9,0 8734.81,0 17481.73,-42.41 26215.52,5.05 13993.87,77.76 19400.36,4072.54 20247.58,-7537.17 -15887.24,-5531.71 -176839.89,345.35 -211427.69,-1520.77 -4102.84,-5936.64 -22774.11,-50010.54 -19476.09,-54262.82 1816.63,-1901.46 9342.7,-1828.76 14003.96,-1777.26l198288.13 36.36c12377.16,28.27 22495.4,4153.32 23281.02,-7240.3 -6901,-4471.41 -50398.3,-1964.07 -59324.97,-1964.07 -59560.25,0 -120454.46,2223.59 -179819.82,-167.62 -6056.8,-8454.08 -11863.18,-39251.08 -12489.25,-54502.15 67308.48,-1523.8 136285.15,-127.24 203778.43,-127.24 33858.72,0 67717.45,0 101576.17,0 16929.37,-1.01 33857.72,-1.01 50788.09,0 8188.5,1.01 18369.34,563.47 26285.2,100.98 5701.35,-332.22 13237.52,-6171.92 8995.33,-9922.33 -8739.85,-5586.23 -347442.22,1241.05 -393258.04,-1620.73 -1414.73,-13722.23 -7749.23,-38791.62 -3320.23,-52301.79z"/>
   <path class="fil0" d="M554021.85 1492579.06c72964.39,115037.87 168621.1,209490.89 297893.17,274093.09 53664.01,26818.38 80896.4,35206.82 138114.92,53438.83 45754.21,14579.55 77748.84,15874.11 118434.85,23293.14 10211.14,1863.09 34199.03,1735.86 45180.65,2582.07 44800.96,3449.49 141068.6,-3950.35 175945.2,-14328.11 12487.24,-3716.07 27154.64,-6507.17 39797.39,-9346.74 123378.85,-27725.18 252560.04,-109853.54 333985.57,-190389.44 78202.25,-77346.94 150395.15,-187943.7 182740.18,-295921.02 3493.92,-11662.23 7087.81,-24497.84 10830.15,-36859.86 3930.15,-12982.04 5794.25,-26114.54 9039.76,-38680.54 11597.6,-44913.05 18659.16,-121667.24 15817.57,-174148.77 -6183.03,278.71 -8330.88,1629.83 -14582.58,3415.16l-11177.52 4165.44c-247.4,-386.75 -915.89,474.61 -1315.77,794.72 -564.48,57109.46 -3523.21,115846.72 -17054.58,165593.7 -14684.57,53985.13 -19896.17,82731.22 -45052.4,137144.5 -86688.64,187512.51 -237473.57,323690.63 -434582.25,387740.47 -41810.93,13585.9 -109506.16,28137.18 -152964.08,30422.36 -146569,7708.85 -254248.44,-11409.77 -378938.01,-72973.48 -85660.66,-42293.61 -151645.29,-97495.55 -207876.22,-157617.26 -26872.9,-28731.95 -57999.1,-70716.57 -78922.23,-104530.86 -76195.77,-123146.6 -107908.66,-252591.35 -105100.4,-397306.34 264.57,-13653.56 151.48,-9402.29 -3900.87,-18128 -2824.42,-6083.06 -1957,-12104.52 -4247.23,-17113.15 -3845.34,1760.09 -19064.09,27937.23 -19162.04,28210.89 -2468.97,6889.89 -1256.2,37138.57 -1133,46420.69 510.96,38264.5 6319.35,92245.58 13706.07,130529.27 15244,78995.95 51697.92,171980.72 94523.7,239499.24z"/>
   <path class="fil0" d="M322524.3 859052.31c815.92,-21457.32 79345.35,-90734.92 96860.4,-103558.42 27043.55,-19800.23 75598.97,-39399.52 113016.24,-37873.71 14670.43,598.82 25755.05,3671.65 35888.43,14955.2 26036.79,28992.48 -23250.73,73122.93 -44040.58,88632.51 -25688.4,19164.06 -79015.13,33535.59 -110963.31,39473.24 -20597.98,3828.16 -74515.45,8182.44 -90761.18,-1628.82zm25475.34 -125963.95c1026.97,-2796.15 2296.29,3680.74 405.94,-3626.2 -1311.74,-5075.28 -955.28,-2563.9 -2504.32,-3727.19l-31475.58 -8346.03c-14773.44,-2474.02 -35054.34,-2999.12 -50785.06,-1710.61 -25500.58,2087.27 -60890.17,16036.7 -67446.83,37574.81 -3689.82,12122.69 -8320.78,34526.2 -2206.42,45570.43 26147.86,47233.58 27251.58,27826.15 52382.57,52574.43 13496.03,13290.03 -18778.31,37202.18 -30883.84,65393.89 -4457.28,10380.78 -9581.02,29039.94 -12016.67,40518.38 -6590.99,31049.45 -6101.23,65818.01 11896.5,85712.16 20963.53,23172.98 39585.32,26091.31 82624.18,21998.58 41980.58,-3990.75 69451.28,-31467.51 75208.17,-25817.66 4676.41,6147.69 -1789.37,11004.84 -5482.22,17127.28 -30695.01,50913.31 -56385.43,95838.48 -110486.69,125593.36 -23713.22,13042.63 -40438.61,11625.87 -67308.48,11729.88 -11681.41,45.44 -15452.02,1238.02 -22042,-4793.54 -16825.35,-15401.53 1123.91,-23245.69 7007.03,-33528.52 -273.66,-4176.55 -4013.97,-16385.08 -6198.18,-19615.44 -3352.54,-4960.16 -12894.18,-8402.58 -21238.19,-7168.6 -11000.81,1626.8 -25273.37,16197.26 -27214.22,27110.21 -5510.5,31003 33885.99,47856.63 56056.24,52038.22 22126.82,4174.53 75895.85,-4372.45 94443.93,-10894.77 79123.19,-27821.11 130311.16,-87850.92 170402.39,-157299.18 6979.77,-12091.39 12811.38,-23281.03 19929.49,-34211.14 7542.23,-11580.44 16276.02,-20602.02 23015.45,-32658.07 11076.54,-19817.4 42987.36,-60353.96 44410.17,-64262.91 -12433.72,-488.75 -63849.9,2349.81 -70949.83,8208.69 -2387.18,1970.13 -14005.98,19311.49 -16214.43,22857.92 -5801.32,9314.43 -9404.3,17591.8 -14806.75,26321.55 -15674.18,25321.85 -57301.32,62324.09 -86345.3,75609.07 -29054.08,13290.03 -67313.53,13977.71 -83238.14,-18640.98 -3596.92,-7365.51 480.67,-27410.12 2147.85,-35921.75 4181.6,-21335.14 11806.63,-41308.05 19943.63,-60304.48 8983.21,-20967.57 19833.56,-35119.98 29086.39,-52792.55 13134.52,-446.34 45087.75,5838.68 73495.55,5055.07 24354.45,-670.51 48405.96,-5142.93 67980,-10635.25 61370.83,-17220.19 111307.66,-42321.89 147732.29,-90244.16 8107.72,-10667.57 9170.03,-12192.37 9454.8,-29012.67 256.49,-15109.7 170.65,-22698.38 -8460.14,-29914.43 -29131.83,-24356.48 -98270.08,-9913.25 -132757.91,1136.02 -77506.49,24832.09 -141411.93,78605.16 -192925.06,123005.23 -8732.78,7527.08 -12473.1,5623.6 -24828.05,-6295.12 -24668.5,-23797.04 -21194.77,-15561.08 -27915.02,-51108.19 -1379.39,-7292.81 3495.94,-24887.63 8203.65,-29883.13 13936.3,-14785.55 22499.44,-24171.68 50308.43,-27565.63 12033.83,-1467.24 23363.83,-3146.55 36642.75,-986.58l30208.29 6620.28c408.97,-52.51 1033.03,-290.83 1367.27,-354.44 342.33,-64.63 944.17,-224.18 1376.37,-436.24z"/>
   <path class="fil0" d="M581807.62 683288.87c1439.98,929.02 24300.93,9564.86 26013.56,9739.56 55453.38,-80266.28 156360.05,-171483.89 255971.15,-218998.2 25497.55,-12162.07 52968.26,-26640.64 82700.92,-35402.71 41552.42,-12242.86 45168.53,-16037.71 93708.8,-26167.05 137575.68,-28708.73 280840.6,-15456.06 410551.94,37190.07 64449.72,26157.96 99207.17,48739.19 153099.4,85924.21 47285.08,32623.74 86653.29,73348.12 123009.26,114776.34 31847.2,36290.33 49879.27,64618.36 73498.58,105264.99 6817.19,11730.89 14436.16,27319.23 21524.98,38835.04l26251.87 -5699.34c-1198.63,-13612.15 -39430.82,-74251.89 -47917.21,-87416.7 -50526.55,-78373.91 -124495.7,-150160.88 -202046.62,-204212.65 -54057.83,-37676.79 -112304.33,-64273.01 -180133.87,-89806.91 -58583.78,-22052.1 -168548.39,-38422.03 -233648.43,-38422.03 -80720.7,0 -173352.03,16665.8 -244276.62,42214.85 -13835.32,4984.39 -27906.94,11131.07 -40981.88,16001.36 -95952.58,35741 -200808.6,116704.04 -267572.79,191533.54 -8678.26,9727.44 -47531.48,54142.66 -49753.04,64645.63z"/>
   <path class="fil0" d="M830127.49 783502.82c4040.22,-10304.04 17410.03,-20437.42 25139.07,-27916.03 36233.78,-35052.31 30303.2,-27793.84 75183.94,-27793.84l539082.81 -118.15c11517.82,-825.01 8439.94,-1884.29 16481.01,4619.86l40340.66 36669c4648.12,4718.82 9243.74,7182.74 10918,14737.08l-707145.49 -197.92zm72633.17 -64614.32c3271.77,-10869.53 83643.07,-55698.77 101415.62,-55697.76l358792.42 -3.03c19539.71,0 98345.82,45284.66 102814.2,55812.88l-563022.24 -112.09zm125909.43 -65245.45c5670.04,-7858.3 20744.4,-9017.55 33602.23,-12385.25 52893.53,-13855.52 111311.7,-18170.41 167795.08,-14166.54 17396.9,1233.98 100223.04,15279.35 108475.16,26569.96l-309872.47 -18.17zm-282187.69 219774.73l193.88 21427.03c8545.97,-1559.14 10569.62,-10826.11 18878.29,-25758.08 5608.45,-10077.84 11096.73,-18536.97 17402.96,-28360.34l29355 -39600.47c4385.58,-5345.9 5204.53,-8024.91 14923.89,-8024.91l724148.57 34.33c3376.78,-7626.04 2738.59,-8273.32 9547.69,-13142.6 -5183.32,-9602.22 -28389.62,-31236.26 -37175.93,-39564.11 -13970.64,-13238.53 -27599.96,-23986.89 -42942.92,-35700.61 -27537.35,-21022.1 -64312.39,-41905.85 -99994.82,-57235.69 -45088.76,-19372.08 -107277.53,-36804.32 -157133.57,-38847.15 -69807.75,-2859.77 -104873.19,-1581.36 -174381.02,16689.02 -117574.5,30906.06 -228882.16,116556.62 -291304.2,219783.83 -5439.81,8997.35 -11518.83,17147.48 -11517.82,28299.75z"/>
   <path class="fil0" d="M1193329.72 1570453.11c11705.65,-24139.36 5556.95,-45430.06 50636.62,-86722.97 24452.4,-22397.45 49957.02,-40636.53 72023.26,-65646.34 33572.95,-38052.44 45515.9,-112223.55 30369.85,-165408.91 -4648.13,-16322.47 -11970.22,-41151.53 -22709.48,-46951.84 -1383.43,1882.27 -334.25,22.21 -1937.82,3442.42l-3610.05 9471.96c-1911.55,4612.78 -3832.2,8786.3 -5539.78,12503.39 -27966.52,60838.67 -113427.23,112350.78 -140509.17,175710.93 -14741.11,34486.83 -19819.42,88457.82 -7548.28,121103.77 2546.73,6775.78 8362.19,12897.21 12610.43,23026.56 5084.36,12121.68 6540.5,17965.42 16214.42,19471.03z"/>
   <path class="fil0" d="M995983.74 1205259.55c-8661.09,2930.45 -13311.23,38019.11 -14389.7,45426.03 -14090.81,96846.25 25163.3,191188.19 104758.07,245359.12 7841.12,5336.82 12602.35,5738.72 19616.45,9771.88 9382.08,5395.38 7072.66,8608.57 21510.84,8517.69 2630.54,-30667.74 -7234.24,-43992.11 -112.09,-82960.44 1475.32,-8076.41 4605.72,-14111 5696.31,-22089.46 10134.39,-74123.65 -43676.04,-95620.35 -92133.5,-136615.36 -41798.82,-35361.32 -37890.88,-55576.58 -44946.38,-67409.46z"/>
   <path class="fil0" d="M1171556.33 1104871.91c-5883.12,14863.3 -8350.07,21420.97 -15633.78,33283.14 -14479.58,23581.95 -50875.94,62194.83 -51799.92,90935.87 -1150.16,35745.04 7500.83,50584.11 23717.27,71342.65 24118.16,30874.75 17896.75,32016.84 30197.18,65037.43 4698.61,-1925.7 3846.34,-1659.11 6773.76,-6729.34 25255.2,-43744.7 74999.15,-69720.9 76413.88,-118087.48 1293.56,-44272.83 -19985.03,-79530.13 -44086.02,-111265.24 -11185.59,-14730.01 -14249.34,-24638.21 -25582.37,-24517.03z"/>
   <path class="fil0" d="M776390.77 598059.4c-4248.24,-21720.88 3950.36,-26446.76 14940.05,-37580.86 6244.63,-6327.43 9583.04,-4675.39 21223.05,-4614.81 11689.49,61.6 12904.29,1145.12 19238.79,6479.92 18655.11,15707.5 38195.83,37342.54 42421.86,63837.78 7879.5,49409.71 -44320.3,59302.75 -79625.06,7753.27 -4341.15,-6339.54 -16719.32,-28310.86 -18198.69,-35875.3zm49206.74 85885.84c13060.8,-20.19 21895.58,-3778.68 32806.51,-3967.52 17963.4,-313.04 1704.55,8206.68 40918.26,8206.68 10138.43,-3.03 11086.64,-3347.5 16439.61,-8111.75 6117.39,-5443.86 9758.75,-5230.79 15287.42,-9188.21 -3464.64,-3626.21 89.87,-1946.9 -5514.54,-2843.61l-21403.8 3239.45c-10104.1,252.45 -17216.15,-4081.62 -20693.91,-9908.19 -8465.19,-14181.69 19018.64,-12794.22 5299.45,-60509.47 -3052.64,-10616.07 1644.97,-14729 -14084.75,-33852.67 -21873.36,-26593.19 -37678.81,-23886.91 -65437.31,-23886.91 -13048.69,0 -33590.12,16354.78 -38364.47,24785.64 -19606.35,34619.1 -15103.64,65019.25 12335.76,93890.55 9204.37,9685.03 22703.42,22176.31 42411.77,22146.01z"/>
   <path class="fil0" d="M1660373.12 1509363.01c-2370.01,-8410.66 12763.93,-23920.24 20574.76,-24942.16 37728.29,-4936.93 28906.65,51170.8 6187.07,43084.29 -4080.62,-1453.1 -26162,-16013.47 -26761.83,-18142.13zm-39767.08 -32781.27c-2158.97,-7657.34 2211.47,-10073.8 5594.31,-13647.5 4268.44,-4507.76 4780.41,-6370.85 13614.18,-6476.88 32433.89,-387.77 23958.6,45155.4 2322.54,39430.82 -5351.96,-1415.74 -20534.36,-15770.1 -21531.03,-19306.44zm56211.74 -5961.88c-11305.76,-14164.52 1787.35,-18626.84 -11593.56,-29254.02 -9334.63,-7412.97 -23621.33,-3912.99 -32270.3,1931.75 -10063.71,6802.04 -33547.71,32095.61 -36098.47,45470.47 31331.18,26987.01 68359.68,45228.1 84919.46,68559.62 10629.19,-3380.82 16464.85,-13721.21 23021.51,-22466.11 4364.37,-5820.51 15509.58,-19381.17 16992.98,-27224.32 10345.44,-54701.08 -35215.9,-37586.92 -44971.62,-37017.39z"/>
   <path class="fil0" d="M1160245.52 1704407.64c0,-5218.66 264.57,-10807.93 866.41,-15198.56 2041.82,-14886.52 11597.6,-23030.59 -18941.9,-20240.51 -13493,19058.03 -25413.74,51404.07 -34779.67,56775.22 -7989.57,-6064.88 -11708.68,-29985.12 -13229.44,-42762.17 -1310.73,-11025.04 5438.8,-27155.64 -23930.33,-28789.51 -4807.68,10571.64 -11747.05,58692.84 -29724.59,96592.8 -8334.92,17569.58 8970.09,15724.66 12548.83,12271.14 2501.29,-2413.44 1896.41,-23286.08 2790.09,-27961.48 2278.12,-11923.76 9850.64,-38891.58 17140.41,-45137.22 12487.24,8170.32 13668.71,55424.1 18936.85,74148.89 11897.51,-2225.61 22816.52,-28908.67 27312.17,-38131.2 1876.22,-3848.37 8566.17,-20068.85 10725.13,-21931.94 2275.09,-1963.05 8672.19,-3116.25 11194.68,-710.9 2664.88,2540.67 1396.56,28116.98 1412.72,32217.8 106.03,26407.38 -3131.4,33383.1 -3215.22,40975.82 2351.84,2080.2 -203.98,669.5 4485.55,3163.72 5984.1,3183.91 12426.65,2503.3 18854.05,2070.09 -3170.78,-34870.55 -2448.77,-44055.72 -2445.74,-77351.99z"/>
   <path class="fil0" d="M730574.96 1581410.5c-13442.51,1.01 -21226.08,-6338.54 -21971.31,-19480.13 -1407.67,-24845.22 7324.1,-34720.09 27164.73,-52286.64 10544.37,-9336.65 10336.35,-10621.12 29250.99,-10797.83 10312.12,-95.93 10306.06,-1440.99 16279.05,4049.31 13445.54,12360 10597.89,23938.41 908.82,43299.38 -5183.32,10358.57 -28098.8,35214.9 -43440.75,35215.91l-8191.53 0zm75087 -35988.41c8836.79,-39717.6 -40264.92,-92522.27 -90672.31,-48363.54 -7609.89,6665.71 -21129.14,21443.18 -23104.32,34024.33 -3568.65,22730.69 107.04,35584.48 11346.16,46607.5 10345.44,10147.52 17338.33,19568.99 38777.48,19555.86 31381.68,-18.17 56967.08,-21776.42 63652.99,-51824.15z"/>
   <path class="fil0" d="M633509.58 1214012.53c-176.72,229.22 -8794.39,8390.46 -10030.39,9532.55 -9549.71,8831.74 -57520.45,19179.2 -79318.07,3590.86 -10220.23,-7308.96 -8339.97,-18340.06 -4770.32,-31591.72 6433.46,-23888.93 73689.43,-29711.46 90070.47,-14379.6 4307.83,4031.13 7923.93,27836.25 4048.31,32847.91zm-107147.27 -2953.68c2772.92,17764.47 10982.63,27229.36 21118.03,35652.14 13378.89,11115.92 27827.17,11461.27 43504.37,9629.49 20190.02,-2359.91 28053.37,-7820.93 38627.02,-18439.02 14908.75,-14972.36 14385.67,-13209.25 14492.71,-41635.23 65.64,-17282.79 -8805.49,-27782.73 -20180.93,-37501.09 -22568.11,-19280.18 -62096.88,-14002.95 -85577.85,9130.65 -9760.77,9616.36 -15101.62,23188.13 -11983.35,43163.06z"/>
   <path class="fil0" d="M938125.01 1625054.22c11086.63,-8399.55 29603.41,4446.17 30655.63,10977.58 311.01,1938.82 -3572.69,16481.01 -4786.48,18442.05 -13757.56,22228.81 -36978.01,10018.26 -41813.96,-664.45 -3473.72,-7671.48 12128.76,-25864.11 15944.81,-28755.18zm10836.2 55452.37c451.39,-219.12 1049.19,-391.8 1416.76,-506.92l18958.06 -4453.23c8558.09,-2202.38 21051.38,-17827.08 19540.71,-26243.8 -150.46,-837.12 -5481.21,-15439.9 -6309.25,-16821.31 -7631.09,-12713.43 -48728.09,-32678.26 -60098.48,-32712.6 -7644.22,18092.66 -13757.57,34372.72 -22331.82,51132.43 -4513.82,8823.67 -8338.96,15293.48 -13297.09,22868.02 -2143.82,3275.81 -29429.73,32327.87 8645.94,31506.89 6333.49,-10963.44 15422.73,-40106.38 21858.21,-40259.87 13718.19,5220.69 11559.23,25538.95 11633.95,42714.71 43.43,10310.1 -801.78,15497.46 5606.44,20331.39 5086.38,3838.26 12161.06,8043.09 16837.47,2154.92 4146.25,-5502.42 -8888.3,-29818.5 -2460.9,-49710.63z"/>
   <path class="fil0" d="M1089583.48 519725.88c-3292.97,1820.68 -10131.36,2531.58 -15191.49,1934.79 -7359.45,-867.43 -6886.86,-649.31 -7074.69,-8654.02 -173.68,-7413.98 2583.08,-18632.91 5668.03,-24201.97 4349.23,1288.51 15596.42,19754.79 16726.39,22361.09 1834.82,4234.11 1651.03,5770.02 -128.24,8560.11zm-48383.75 61039.62c10290.91,-108.05 12810.38,-1272.35 19048.94,-5094.46 -1167.33,-15748.9 -9432.57,-9105.4 -3033.45,-26461.91 5897.26,-15995.3 18325.92,-18862.13 37209.26,-18338.04 8459.13,234.27 8891.32,2033.74 12392.31,7020.15 9153.87,13040.61 7869.4,10282.84 8018.85,30062.88 12157.03,-918.93 34839.25,-1154.21 33122.58,-10524.18 -479.65,-2615.39 -815.92,-2687.09 -1862.08,-4341.15l-15698.41 -22359.08c-12425.63,-19226.66 -24965.38,-45089.76 -36402.42,-65106.09 -4526.95,-7920.91 -14178.66,-27229.37 -21009.98,-29613.51 -6924.22,5525.64 -9091.26,20753.49 -10307.07,32579.3 -2507.34,24384.75 -20772.67,104789.37 -21478.53,112176.09z"/>
   <path class="fil0" d="M1845352.04 1157647.29c2189.25,-13791.9 446.33,-17689.74 -10013.22,-11821.77 -17421.14,9771.87 -53389.34,33104.4 -68452.59,32916.58 -4885.43,-6696.01 -11205.79,-12827.54 -16768.8,-20623.23l-11427.95 -16302.27c-3032.44,-2793.12 -1587.42,-2124.63 -6225.44,-3346.49 -2997.1,6181.01 -4171.5,8264.23 -3360.63,17796.78 11693.53,6925.23 17377.71,12076.24 25985.28,21417.94 10871.55,11797.54 17364.59,19192.33 16499.19,30867.69 -28213.92,529.13 -35802.6,-5942.7 -44036.54,-6342.58 -9497.21,13453.62 -4426.98,24016.17 -4419.91,23991.93 62.61,-215.09 321.12,772.5 562.46,1109.77 1898.43,1670.22 64554.74,3967.52 86073.66,8352.09 9565.88,1949.93 17734.18,4906.64 24742.22,-355.45 4.04,-4.04 7661.38,-16756.68 4600.67,-20174.87 -9001.4,-10059.67 -48996.7,12779.07 -54081.06,-17936.14 9057.94,-6995.92 14784.54,-9865.78 26822.41,-15648.93 32317.76,-15525.73 30195.16,-3077.88 33500.25,-23901.05z"/>
   <path class="fil0" d="M654135.83 1286176.14c23562.77,39233.92 -17779.62,46589.33 -30445.59,38462.43 -1284.47,-824 -16013.47,-22832.68 -5708.42,-29508.49 7012.08,-4543.11 24496.84,-9522.46 36154.01,-8953.94zm-106279.84 7406.92c2791.1,6600.07 5514.54,12006.56 8334.92,19680.06 14454.33,-2396.26 22742.8,-13957.51 43632.62,-15536.84 5066.18,8343 8818.62,13288.01 1431.9,21597.69 -7515.97,8453.07 -30021.47,26975.9 -31840.13,30759.63 -3624.18,7540.21 3939.25,15669.13 6433.46,22244.98 18382.47,-6159.81 21779.45,-29122.75 36765.95,-38028.21 10372.71,3407.08 27065.78,23001.31 48511.99,8708.55 20555.57,-13699 4295.71,-51078.91 -933.05,-68031.5 -6030.55,-19555.86 -2353.86,-18741.96 -58736.26,3517.15 -20118.32,7942.1 -47998,12228.72 -53601.4,15088.49z"/>
   <path class="fil0" d="M1208012.27 1743744.55c-635.16,-2664.87 -734.13,-35639 -241.34,-39235.93 1017.88,-7426.09 10097.03,-23219.43 14190.77,-26398.29 7559.4,-5873.02 24145.42,-1451.09 31082.78,1742.92 18941.9,8721.68 16491.11,44917.09 15543.91,63858.99 -1446.04,28930.88 -34618.1,35412.81 -44731.28,24479.67 -1219.85,-1318.81 -15811.51,-24306.99 -15844.84,-24447.36zm-21224.06 -4916.73c3328.32,13675.77 21505.8,43377.14 40098.31,44370.78 8965.04,477.64 18633.91,388.78 26056.98,-1962.05 13209.24,-4182.6 9757.73,-2176.12 17671.57,-10234.36 4946.02,-5036.9 10134.39,-7960.28 13408.17,-14584.6 5732.66,-11600.62 9767.84,-32336.95 6996.93,-48669.52 -670.51,-3947.32 -7852.23,-15059.2 -10312.11,-19481.13 -3884.72,-6980.78 -6601.09,-9286.16 -13545.51,-14199.87 -12766.95,-9034.71 -25666.19,-13825.22 -41957.36,-7521.01 -14012.04,5422.64 -25140.07,13212.27 -31952.21,23924.27 -5944.72,9350.78 -9955.66,34015.24 -6464.77,48357.49z"/>
   <path class="fil0" d="M1425548.27 491398.86c4247.24,10651.41 -32480.34,93760.3 -39407.6,103670.51 -5344.89,7645.23 -7174.65,3405.06 -7250.39,15150.09l29390.34 11764.22c6644.51,-18600.59 7600.8,-32209.72 19580.1,-59132.1l18870.21 -39945.83c3953.38,-8550.01 3021.33,-9921.32 7497.79,-12428.66 9818.33,-4179.58 18309.77,578.61 23014.44,6088.1 5347.92,6262.81 7865.37,13173.91 13515.22,17861.42 8595.45,-3936.22 7966.34,-20154.68 4648.13,-24590.75 -2806.25,-3750.41 -17367.62,-6999.96 -23651.63,-9029.67 -64506.28,-20831.24 -68221.34,-48103.01 -86169.6,-21009.98 -14656.29,22122.79 26105.45,-7354.4 39962.99,11602.65z"/>
   <path class="fil0" d="M964336.49 467827.01c-215.09,11321.92 2301.34,9505.28 7863.34,16242.69 2643.67,3201.08 8282.41,10875.59 9948.59,14443.23 2374.05,5088.4 4305.8,11875.29 6358.73,16672.87 7048.44,16471.92 18728.84,34003.13 20897.9,52045.3 2431.6,20223.34 -13768.68,38605.81 -36065.15,35362.32 -3144.53,-457.44 -16475.96,-4546.14 -18580.39,-5882.11 -7161.53,-4545.13 -28007.92,-52035.19 -32429.86,-62533.12 -6653.59,-15796.36 -8233.94,-24654.36 -12644.76,-36462 -2568.94,275.68 -28574.42,5536.76 -28246.24,13474.83 3572.69,7747.21 13562.68,15343.97 18967.15,26922.38l30517.29 61118.38c11501.66,20963.53 14851.18,19558.9 38848.16,19558.9 9954.65,-4.04 16310.36,-4630.97 21950.11,-8638.88 5233.81,-3719.11 14543.2,-9970.8 18670.27,-14071.62 11700.59,-11624.86 5060.12,-38859.27 284.76,-52253.31 -5854.84,-16426.48 -14119.08,-27202.1 -20468.73,-44879.72 -12578.11,-35020 -1673.24,-41333.3 -25871.17,-31120.14z"/>
   <path class="fil0" d="M1186785.18 431453.87c1930.75,43021.69 2605.3,48169.67 -1035.05,92894.89 -1112.8,13671.74 -6925.23,28236.14 -6474.86,40957.65 11174.49,3055.67 73781.33,14749.2 81829.46,4580.47 3144.53,-3973.58 7303.91,-18170.41 6247.66,-25315.78 -8333.91,283.75 -35355.26,31247.37 -55736.13,11484.5 -7125.17,-6908.07 -3003.15,-11733.92 -1477.34,-20674.73 4704.68,-27544.42 1313.75,-58920.04 5016.7,-78688.97 1394.54,-7447.3 4643.08,-17559.48 5015.7,-24063.63 -6777.8,-3267.72 -27353.57,-7103.97 -33386.14,-1174.4z"/>
   <path class="fil0" d="M1475462.88 661982.01c2609.33,8533.85 11602.65,18169.4 22616.58,18735.9 22598.4,-37162.8 18170.41,-33049.87 46955.88,-46312.64 10973.54,-5056.09 21484.59,-9626.46 33073.1,-14443.22 5464.05,-2272.06 10228.3,-4228.05 16300.25,-6504.15 2795.14,-1048.18 4894.52,-1935.79 7978.46,-3213.2 2707.29,-1120.88 15559.06,-3978.62 3933.19,-13098.16 -2959.74,-2321.54 -5833.64,-3421.22 -9070.06,-4138.18 -4969.24,4358.32 -5898.26,8921.62 -10607.99,12538.74 -3865.53,2967.81 -11288.6,5247.95 -16802.13,7711.87 -10148.53,4532 -23556.7,16341.66 -36758.88,9769.85 -2878.95,-7234.23 384.74,-9551.73 3021.33,-15513.62 7408.94,-16744.56 3425.26,-34286.88 20326.35,-45228.1 -781.59,-14056.47 -23374.94,-31493.77 -27640.36,-22826.62 -1053.22,2141.79 -3839.27,21101.87 -4698.61,25330.93 -2664.88,13125.43 -9309.39,29833.65 -11540.04,45174.59 -2379.1,16361.85 -8644.93,21700.68 -22603.45,36450.89 -5135.87,5426.69 -10826.11,9039.77 -14483.62,15565.12z"/>
   <path class="fil0" d="M1484205.76 1639276.3c-9821.35,6250.69 3695.88,3107.17 -28091.73,19189.3 -16951.58,8576.27 -19047.94,420.08 -24455.44,-14851.18 -1589.43,-4491.61 -10918,-18116.89 10467.63,-25700.52 14034.26,-4976.32 26953.69,1653.05 40029.64,-5535.75 -1397.57,-5408.51 -5044.98,-8688.35 -7641.19,-12854.8 -17354.49,1166.32 -62227.14,24634.17 -72272.67,34407.05 1410.69,5634.7 3468.67,6092.15 7140.32,10983.64 7846.18,10455.51 13611.15,20832.25 18744.99,33599.2 6164.85,15329.83 16781.93,34944.27 15411.63,50227.65 15819.59,187.82 68956.48,-25597.52 77841.74,-32798.43 172.68,-318.09 3328.32,-13939.34 -6046.7,-18464.27 -5838.69,4154.34 -2923.39,8311.7 -16954.61,19843.66 -2832.5,2328.61 -18379.44,10455.51 -22419.67,11982.33 -12220.64,4620.87 -16428.5,-3822.11 -20825.18,-11788.45 -3372.75,-6108.3 -8346.03,-16085.17 -9617.38,-24249.43 18290.58,-15653.98 24399.9,-10114.2 45406.85,-17656.42 798.75,-10252.54 -968.41,-12253.97 -6718.23,-16333.58z"/>
   <path class="fil0" d="M1404111.14 1744172.71c-863.38,-24091.9 -16738.51,-53862.94 -18086.59,-85659.65 -651.33,-15332.86 3168.76,-21985.45 -15435.87,-17021.25 -3709.01,11615.77 14532.09,18651.08 14252.38,63435.88 -8688.36,403.92 -8982.21,-578.62 -14070.61,-5083.35 -21521.95,-19057.02 -53283.32,-55433.19 -74728.52,-38069.61 1446.04,10485.81 8874.16,8460.14 11117.94,21329.08l11151.26 54128.52c4627.94,35033.13 -2037.78,31688.66 18810.63,26527.55 -930.03,-10056.64 -5738.71,-9170.03 -9205.37,-18101.75 -2346.79,-6044.68 -2994.07,-13723.23 -5114.66,-20837.3 -3346.49,-11225.99 -11278.5,-28795.57 -6837.38,-39650.96 9165.99,-539.24 36608.42,22566.09 44142.57,28673.38 9773.89,7920.9 32180.43,30343.6 44004.22,30329.46z"/>
   <path class="fil0" d="M1292795.41 578199.59c6505.16,4872.3 12151.98,5502.42 20693.91,6194.13 147.43,12.12 3615.1,218.12 4022.05,197.93 2411.41,-124.21 2484.12,-206 3594.9,-664.46l26354.87 -99396c2213.49,-6705.1 10258.6,-25940.86 10199.02,-31997.66 -6793.96,-2726.47 -11420.88,-3254.6 -19400.35,-5150 -16518.37,-3925.11 -7493.75,2388.18 -20574.75,52719.84 -3927.13,15110.71 -6448.61,25938.83 -11073.51,39875.14 -3093.03,9320.49 -13606.1,32240.01 -13816.14,38221.08z"/>
   <path class="fil0" d="M1733809.09 1402183.43c-258.51,4010.94 -6988.85,13537.43 -12045.95,15643.88 -5747.8,-3598.94 -14706.78,-11667.27 -14294.78,-19380.16 8581.31,-268.6 20446.51,684.65 26340.73,3736.28zm55197.91 -12850.77c384.73,-3868.56 72.7,-1656.07 -290.83,-4116.97l-118752.94 -14640.13c-747.25,9098.33 3733.25,10830.14 8127.91,15294.49 4091.73,4155.34 7067.62,7429.12 11171.46,11775.32l54757.63 63615.63c7507.89,3516.13 11085.63,-2984.98 11094.72,-11585.48 -7725,-3576.73 -15352.05,-4794.55 -19190.32,-11937.91 -5931.58,-11035.13 -1833.8,-16781.93 1632.86,-23938.41 4455.25,-9199.31 4858.16,-13666.68 18402.66,-12682.12 10398.96,755.33 17483.75,5762.95 23144.71,5993.18 5748.81,-1454.12 9670.89,-15442.93 9902.14,-17777.6z"/>
   <path class="fil0" d="M833020.58 1543098.54c-23674.86,50128.68 -72735.17,75664.6 -30540.51,112314.43 11221.95,9746.62 13503.09,11746.04 33098.34,8360.16 9218.5,-1592.46 11255.27,-730.08 17086.89,-6057.81 15585.32,-14239.25 16703.17,-21975.35 28663.29,-37042.64 9987.97,-12583.16 33771.88,-33711.29 17597.85,-37376.88 -8598.48,-1948.92 -7669.46,4933.9 -10132.37,10718.06 -3763.54,8840.83 -12885.1,19918.38 -17691.77,26464.94 -16381.04,22312.63 -36664.97,53085.39 -63179.39,26205.42 -12815.42,-12991.13 1611.65,-31764.39 9961.72,-45076.64 6395.08,-10195.99 11697.56,-16859.68 18693.49,-25597.51 6310.26,-7882.53 16086.17,-15035.99 19010.56,-24721.01 -6155.76,-5333.79 -10531.24,-8643.93 -22568.1,-8190.52z"/>
   <path class="fil0" d="M1793247.16 1258066.23c192.88,13478.87 8599.49,10199.02 10003.12,23554.69 2278.12,21682.51 -3010.23,33860.74 -22377.25,42564.24 -9679.98,4350.24 -17581.7,2913.29 -29675.11,2390.21 -13858.55,-598.81 -15154.13,-1247.11 -24176.73,-7729.04 -6750.54,-4848.07 -13224.39,-7757.31 -15804.44,-16675.9 -3292.97,-11382.51 -2840.58,-17976.53 2689.11,-25247.12 8557.08,-11250.22 12655.87,-12433.71 15207.65,-18331.98 -5515.55,-6010.35 -9795.1,-6129.51 -17905.85,-5459 -10183.87,25607.62 -14085.75,40818.29 4.04,66875.27 6850.51,12669 8579.3,13991.85 22456.02,20356.64 9233.65,4235.12 19931.51,8737.84 33359.88,6219.38 11188.63,-2097.36 24089.89,-4565.32 32984.24,-9719.36 15626.71,-9054.91 14141.29,-16074.06 16282.08,-24871.47 3605,-14820.89 8839.82,-19101.45 -954.27,-33811.26 -5270.16,-7915.86 -12151.98,-17421.14 -22092.49,-20115.3z"/>
   <path class="fil0" d="M1575951.5 1653115.66c6035.59,-1218.83 18559.18,-12063.11 20188,-17546.35 -2952.67,-5056.09 -5575.13,-4607.74 -10588.81,-8066.31 -12378.17,-8540.93 -16887.96,-19415.5 -18906.56,-34909.93 -2518.45,-19343.81 -3129.38,-47232.57 -10751.38,-61404.16 -4498.67,1384.44 -10290.91,6917.16 -12297.39,10955.36 5833.64,7237.27 11275.47,15506.55 12561.96,24849.26 5089.41,36936.6 6337.53,34964.46 -28997.53,17251.49 -24525.11,-12295.38 -10847.31,-8702.49 -21655.24,-14478.57 -6176.97,2923.38 -11095.73,8385.41 -17287.85,12292.34 2691.13,6642.49 -652.33,2420.5 5024.79,6906.05l19713.39 9967.77c28351.25,13663.66 37798.98,16819.3 56064.31,41875.56 3373.76,4625.91 4175.54,8495.48 6932.31,12307.49z"/>
   <path class="fil0" d="M684156.29 1453635.97c1034.04,-3944.3 11457.24,-18552.12 14678.51,-23550.65 7622,-11828.84 7232.22,-11532.97 19871.93,-17847.27 -1050.19,-7759.34 -8119.83,-18450.13 -14345.27,-21031.19 -8455.09,2399.29 -11677.37,14657.3 -16611.28,22930.63 -4555.22,7637.14 -10233.35,15699.42 -15093.53,24108.06 -8688.36,15031.94 -5214.63,11553.16 -18470.33,20827.2 -3996.8,2797.16 -7075.69,5823.54 -11637.99,7985.53l-12620.53 4062.44c-216.1,-372.62 -852.27,305.97 -1232.97,544.29 771.49,7274.62 7082.77,15967.02 11772.3,19317.55 22434.81,-5670.05 13484.92,-22487.33 52475.47,-24021.22 12763.92,-501.87 74356.91,868.43 55245.36,-12999.21 -6375.9,-4223 -26009.52,1879.25 -33323.53,3760.51 -19722.48,5070.23 -23675.86,3366.69 -30708.14,-4086.67z"/>
  </g>
 </g>
</svg>
